<?xml version="1.0" standalone="no"?>
<!DOCTYPE svg PUBLIC "-//W3C//DTD SVG 20010904//EN"
 "http://www.w3.org/TR/2001/REC-SVG-20010904/DTD/svg10.dtd">
<svg version="1.0" xmlns="http://www.w3.org/2000/svg"
 width="1533.000000pt" height="923.000000pt" viewBox="0 0 1533.000000 923.000000"
 preserveAspectRatio="xMidYMid meet">

<g transform="translate(0.000000,923.000000) scale(0.100000,-0.100000)"
fill="#05058a" stroke="none">
<path d="M7170 8999 c-894 -34 -1791 -163 -2600 -375 -470 -123 -903 -268
-1335 -447 -113 -47 -140 -59 -223 -98 -46 -21 -86 -39 -88 -39 -27 0 -593
-301 -727 -387 -37 -24 -70 -43 -73 -43 -3 0 -96 -61 -207 -136 -364 -245
-620 -455 -889 -730 -54 -55 -110 -115 -126 -134 -15 -18 -44 -52 -65 -74 -21
-23 -52 -60 -69 -83 -17 -24 -35 -43 -40 -43 -4 0 -8 -5 -8 -11 0 -9 -60 -90
-80 -109 -3 -3 -37 -52 -75 -110 -38 -58 -73 -106 -77 -108 -5 -2 -8 -8 -8
-14 0 -6 -22 -47 -50 -93 -27 -46 -50 -88 -50 -94 0 -6 -4 -11 -10 -11 -5 0
-10 -4 -10 -10 0 -5 -27 -65 -59 -132 -61 -126 -68 -142 -119 -288 -43 -124
-72 -218 -72 -237 0 -9 -6 -39 -14 -67 -32 -113 -38 -149 -67 -421 -12 -120
-8 -343 11 -495 17 -143 63 -374 86 -428 8 -18 14 -39 14 -46 0 -20 41 -150
51 -161 5 -5 9 -16 9 -25 1 -8 9 -33 20 -55 11 -22 19 -44 20 -49 0 -5 27 -64
60 -132 33 -67 60 -127 60 -133 0 -6 5 -11 10 -11 6 0 10 -5 10 -11 0 -6 20
-45 45 -86 25 -40 45 -78 45 -83 0 -5 6 -15 12 -22 7 -7 31 -40 53 -73 22 -33
42 -62 45 -65 4 -3 17 -23 30 -45 13 -22 27 -42 30 -45 3 -3 38 -46 76 -97
208 -270 486 -548 789 -788 21 -16 52 -42 69 -56 17 -14 52 -40 78 -57 25 -18
53 -39 61 -47 17 -17 402 -275 411 -275 3 0 44 -25 91 -55 46 -30 87 -55 89
-55 2 0 55 -29 117 -64 231 -129 568 -293 799 -388 959 -395 1956 -644 3060
-762 1145 -124 2354 -92 3435 89 902 152 1676 371 2430 688 191 81 555 255
695 334 19 11 62 35 95 53 95 52 114 63 225 131 118 71 427 277 480 320 19 16
67 52 105 81 39 28 97 75 131 102 33 28 74 62 91 76 94 77 293 268 408 392 62
67 72 78 165 188 30 36 57 67 60 70 3 3 18 23 33 46 15 22 35 49 45 60 9 10
49 66 87 124 39 58 76 111 83 118 6 7 12 17 12 22 0 5 27 54 60 108 33 55 60
102 60 106 0 3 27 62 60 130 33 69 60 129 60 134 0 5 7 23 15 38 8 16 15 36
15 44 0 9 4 20 8 25 5 6 19 44 31 85 13 41 29 95 36 120 62 206 105 500 105
725 1 232 -42 530 -107 755 -33 110 -85 265 -94 275 -5 5 -9 15 -9 23 0 7 -27
70 -60 139 -33 69 -60 127 -60 130 0 3 -23 42 -50 88 -28 46 -50 88 -50 94 0
6 -4 11 -10 11 -5 0 -10 6 -10 14 0 8 -6 21 -13 28 -7 7 -24 31 -37 53 -13 22
-27 42 -30 45 -3 3 -17 23 -30 45 -13 22 -29 45 -35 51 -5 6 -17 22 -25 34 -8
12 -22 30 -30 40 -8 11 -26 34 -40 52 -24 31 -104 128 -160 192 -171 199 -466
475 -684 641 -22 17 -71 54 -110 84 -74 56 -450 311 -460 311 -3 0 -44 25 -91
55 -46 30 -87 55 -89 55 -2 0 -33 16 -68 36 -126 72 -166 93 -313 167 -187 94
-344 168 -480 225 -200 84 -251 104 -380 152 -1396 520 -2981 760 -4615 699z
m960 -169 c545 -25 981 -66 1440 -135 1724 -262 3216 -866 4185 -1694 644
-550 1017 -1164 1116 -1836 18 -117 18 -463 0 -580 -70 -475 -274 -916 -618
-1335 -100 -121 -369 -393 -498 -502 -615 -520 -1398 -939 -2355 -1258 -2313
-773 -5247 -773 -7560 0 -1201 401 -2148 969 -2763 1658 -400 448 -632 918
-708 1437 -18 117 -18 463 0 580 70 475 274 916 618 1335 100 121 369 393 498
502 987 834 2460 1430 4185 1693 780 118 1709 169 2460 135z"/>
<path d="M7210 8303 c0 -137 3 -285 7 -330 l6 -83 188 0 c103 0 194 3 203 6
10 4 16 18 16 40 l0 34 -165 0 -165 0 0 178 c0 97 -3 228 -7 290 l-6 112 -39
0 -38 0 0 -247z"/>
<path d="M7990 8250 c-69 -160 -131 -304 -138 -321 l-13 -30 47 3 47 3 38 90
c37 90 37 90 75 93 22 2 85 1 141 -3 l102 -7 32 -98 33 -98 44 -6 c25 -3 47
-5 48 -3 2 2 -50 151 -114 333 l-118 329 -50 3 -49 2 -125 -290z m244 -19 c14
-41 26 -77 26 -79 0 -5 -212 7 -217 12 -2 1 15 44 36 94 22 50 47 115 56 144
10 29 20 57 23 62 3 5 16 -28 28 -75 13 -46 34 -117 48 -158z"/>
<path d="M6468 8503 l-68 -4 0 -32 c0 -18 9 -156 20 -307 11 -151 20 -285 20
-297 0 -24 21 -29 68 -17 18 5 22 12 18 33 -3 14 -8 76 -12 138 l-6 111 55 7
c105 13 151 -24 248 -202 33 -62 35 -63 76 -63 23 0 44 4 47 8 7 11 -130 233
-162 261 -15 13 -22 26 -17 28 32 10 78 47 95 75 29 48 28 144 -2 188 -46 67
-67 75 -196 76 -64 0 -147 -1 -184 -3z m276 -86 c62 -41 52 -153 -16 -182 -19
-7 -77 -17 -129 -20 l-96 -8 -6 78 c-4 43 -7 93 -7 111 l0 33 68 4 c104 6 159
1 186 -16z"/>
<path d="M8767 8468 c-18 -143 -59 -588 -55 -600 4 -10 55 -19 198 -32 207
-20 209 -20 210 31 0 26 -8 28 -187 44 l-133 12 1 26 c0 14 12 144 27 288 l28
261 -29 6 c-50 10 -54 8 -60 -36z"/>
<path d="M5780 8421 l-34 -6 -78 -320 c-42 -176 -77 -329 -77 -340 -1 -18 4
-20 39 -17 44 4 41 -1 66 117 9 44 21 85 26 90 5 6 66 18 136 27 146 19 127
28 192 -92 l43 -81 46 7 c25 4 47 7 47 8 7 5 -348 611 -358 612 -7 1 -29 -1
-48 -5z m167 -367 c-2 -3 -50 -10 -105 -17 -92 -12 -102 -12 -102 2 0 9 11 66
24 126 13 61 27 127 31 147 6 38 6 37 81 -108 41 -81 73 -148 71 -150z"/>
<path d="M9955 8338 c-26 -113 -124 -612 -121 -615 8 -8 76 -21 76 -14 0 15
98 483 102 487 3 2 54 -123 113 -277 60 -155 114 -283 120 -285 5 -2 25 -5 44
-6 l34 -3 63 310 c35 171 62 315 60 321 -3 6 -19 14 -36 16 -40 6 -36 16 -90
-257 -23 -121 -46 -223 -49 -227 -3 -4 -53 114 -110 263 -57 148 -109 275
-115 283 -6 7 -28 17 -48 20 -33 6 -38 4 -43 -16z"/>
<path d="M5162 8320 c-18 -4 -35 -9 -37 -11 -2 -2 7 -56 20 -119 13 -63 24
-122 25 -130 0 -12 -33 -22 -147 -44 -82 -16 -152 -29 -158 -30 -5 0 -19 49
-32 109 -13 61 -25 120 -28 131 -4 20 -9 21 -41 14 -19 -5 -37 -10 -40 -12 -2
-3 25 -146 59 -319 l63 -314 39 2 c21 2 40 4 42 6 1 2 -10 70 -27 152 -17 82
-29 149 -28 151 6 4 312 64 315 61 1 -2 16 -68 32 -146 16 -78 31 -144 34
-147 9 -9 77 8 77 20 0 24 -122 621 -128 627 -4 3 -22 3 -40 -1z"/>
<path d="M10730 7872 c-47 -169 -85 -311 -85 -317 0 -5 90 -34 200 -65 l200
-57 12 26 c7 14 12 31 13 37 0 6 -71 30 -157 54 -87 23 -161 44 -164 46 -7 4
45 202 55 212 3 3 63 -12 134 -32 70 -20 135 -36 144 -36 14 0 28 27 28 56 0
6 -63 29 -140 50 -98 27 -140 43 -140 53 0 21 41 165 49 174 4 4 74 -11 155
-34 82 -22 152 -37 156 -32 5 4 12 20 15 35 5 20 3 27 -12 32 -10 3 -92 26
-183 51 -91 25 -172 48 -180 50 -12 4 -33 -59 -100 -303z"/>
<path d="M4113 8069 c-18 -5 -33 -11 -33 -12 -3 -14 -67 -693 -66 -694 1 -1
20 3 43 9 l41 10 7 87 c10 137 -1 124 131 160 63 18 121 35 129 37 8 3 37 -27
76 -78 34 -46 64 -85 66 -87 2 -3 24 2 49 10 l45 14 -213 277 c-117 152 -220
277 -228 277 -8 -1 -30 -5 -47 -10z m51 -98 c9 -16 49 -74 91 -130 41 -56 75
-105 75 -109 0 -7 -199 -66 -205 -60 -2 2 0 48 5 103 5 55 9 128 10 163 0 34
2 62 5 62 2 0 11 -13 19 -29z"/>
<path d="M11454 7663 c-60 -163 -110 -300 -112 -304 -2 -5 13 -15 34 -24 29
-12 39 -13 45 -3 4 7 29 71 55 143 26 71 48 131 49 132 2 3 295 -104 301 -110
2 -2 -18 -64 -46 -138 -27 -74 -50 -139 -50 -144 0 -10 68 -41 75 -33 5 6 226
611 223 613 -14 10 -73 24 -78 18 -4 -5 -26 -61 -50 -126 -23 -65 -46 -117
-50 -115 -3 2 -69 25 -145 53 -75 27 -140 55 -142 62 -3 6 14 62 36 123 23 61
41 115 41 120 0 7 -53 30 -70 30 -4 0 -56 -133 -116 -297z"/>
<path d="M3593 7906 c-17 -6 -34 -14 -37 -17 -5 -4 56 -480 68 -534 4 -17 2
-16 -12 5 -60 88 -287 408 -298 419 -11 12 -19 12 -55 1 -22 -8 -43 -19 -45
-25 -4 -11 39 -444 52 -525 l6 -35 -24 40 c-18 31 -269 404 -285 424 -3 4 -83
-20 -83 -25 0 -3 371 -534 385 -552 1 -2 21 5 44 14 38 15 41 19 36 48 -10 61
-57 528 -53 532 2 2 76 -98 163 -222 88 -124 163 -228 167 -230 5 -3 24 0 43
7 26 10 35 19 35 35 0 27 -69 647 -73 649 -1 1 -16 -3 -34 -9z"/>
<path d="M7758 7708 c-73 -9 -173 -19 -223 -22 -49 -2 -130 -7 -180 -10 -49
-3 -189 -11 -310 -16 -332 -16 -493 -49 -533 -108 -32 -49 -44 -97 -87 -352
-8 -47 -26 -130 -41 -185 -14 -55 -32 -125 -39 -156 -7 -31 -17 -72 -23 -90
-36 -110 -94 -365 -98 -429 -5 -76 -3 -84 38 -141 14 -20 18 -51 19 -170 1
-95 -2 -152 -10 -167 -6 -12 -14 -57 -17 -99 -6 -85 9 -141 77 -275 23 -45 30
-70 26 -97 -2 -20 -13 -94 -23 -164 -21 -152 -16 -193 47 -352 22 -55 42 -117
46 -138 3 -20 10 -40 14 -43 5 -3 9 -15 9 -27 1 -34 63 -203 99 -267 5 -9 12
-40 16 -70 4 -30 13 -70 21 -89 8 -18 14 -45 14 -58 0 -14 11 -71 24 -127 29
-121 43 -192 51 -266 4 -35 24 -91 55 -155 61 -128 70 -154 63 -204 -5 -37 -9
-41 -33 -41 -15 0 -35 -9 -46 -21 -20 -22 -108 -91 -157 -122 -25 -16 -28 -23
-22 -56 5 -29 2 -41 -14 -55 -16 -15 -18 -22 -9 -47 5 -16 11 -29 12 -29 1 0
24 11 52 24 47 23 68 20 45 -8 -6 -7 -8 -21 -5 -30 4 -11 -5 -31 -25 -57 -34
-41 -21 -57 15 -18 19 21 176 129 188 129 3 0 6 -7 6 -15 0 -8 -4 -15 -9 -15
-5 0 -22 -26 -36 -57 -15 -32 -41 -73 -58 -91 -23 -24 -28 -35 -20 -43 9 -9
27 3 71 45 69 65 87 71 77 24 -7 -32 -7 -33 12 -15 11 9 24 17 29 17 5 0 42
14 83 31 69 29 101 32 101 10 0 -6 -7 -16 -16 -23 -8 -7 -44 -40 -79 -73 -36
-33 -79 -71 -97 -85 -26 -20 -29 -26 -14 -28 25 -5 16 -33 -19 -52 -16 -10
-29 -23 -27 -30 1 -6 -2 -9 -7 -6 -9 6 -171 -158 -171 -174 0 -6 8 -10 18 -10
10 0 23 -5 29 -11 9 -9 6 -17 -13 -31 -13 -11 -24 -24 -24 -29 0 -21 35 -6 76
31 48 44 80 53 69 20 -3 -11 -4 -24 0 -30 8 -14 77 23 93 49 7 12 34 36 61 54
27 17 80 59 119 92 97 83 183 141 260 175 13 5 42 23 65 38 23 15 56 34 72 41
17 7 42 20 57 27 28 15 70 18 82 7 7 -7 -52 -73 -66 -73 -21 0 -148 -102 -148
-119 0 -6 -6 -8 -13 -6 -7 3 -27 -10 -45 -29 -18 -19 -41 -38 -52 -41 -11 -4
-20 -14 -20 -24 0 -20 -39 -58 -92 -90 -21 -13 -38 -27 -38 -32 0 -5 -6 -9
-14 -9 -21 0 -30 -19 -16 -35 16 -19 2 -41 -54 -89 -25 -21 -46 -45 -46 -53 0
-9 -12 -29 -26 -46 -18 -22 -22 -33 -14 -35 8 -3 18 1 24 9 26 33 210 179 225
179 32 0 -6 -67 -45 -81 -7 -2 -36 -26 -67 -54 -30 -27 -68 -61 -84 -75 -30
-25 -60 -70 -47 -70 3 0 0 -8 -7 -17 -13 -17 -13 -17 7 -1 11 10 34 21 51 24
17 3 46 21 64 40 18 19 38 34 44 34 7 0 20 9 30 20 10 11 23 20 29 20 20 0 68
51 62 67 -4 8 -1 11 5 7 16 -9 69 45 62 65 -4 14 -3 14 6 1 9 -13 16 -9 48 21
21 20 52 44 69 52 16 9 59 46 95 84 47 50 75 72 106 81 52 15 81 31 113 59 86
78 123 109 190 161 41 33 105 90 141 128 36 38 85 83 108 99 24 17 64 49 90
73 27 23 52 42 57 42 6 0 70 56 142 125 130 122 166 146 155 105 -3 -11 -8
-20 -12 -20 -10 0 -95 -82 -196 -191 -50 -53 -101 -102 -114 -108 -20 -11 -22
-18 -18 -47 5 -29 3 -34 -13 -34 -19 0 -133 -90 -195 -154 -17 -17 -45 -42
-62 -56 -104 -84 -152 -126 -152 -133 -1 -16 -59 -67 -75 -67 -9 0 -22 -11
-28 -25 -14 -32 5 -105 28 -105 9 0 42 20 74 45 32 25 61 45 65 45 3 0 21 10
38 23 46 33 105 58 112 47 5 -9 -94 -90 -110 -90 -4 0 -23 -18 -42 -40 -19
-22 -39 -40 -44 -40 -17 0 -49 -34 -49 -52 0 -10 -16 -36 -36 -58 -34 -37 -35
-40 -14 -40 12 0 34 8 48 18 15 10 45 24 67 30 27 8 59 30 97 70 67 68 121
108 162 118 26 6 27 5 17 -15 -8 -14 -8 -21 -1 -21 5 0 10 -5 10 -11 0 -6 -7
-9 -15 -5 -21 8 -45 -3 -45 -20 0 -8 -4 -14 -9 -14 -9 0 -42 -27 -104 -84 -24
-22 -32 -38 -33 -65 0 -20 -4 -53 -8 -74 -6 -28 -5 -37 5 -37 7 0 56 45 109
100 54 55 102 100 109 100 6 0 5 -7 -5 -17 -8 -10 -28 -36 -44 -58 -17 -22
-40 -52 -52 -67 -12 -15 -19 -30 -16 -34 13 -13 78 19 107 52 17 19 34 34 38
34 14 0 77 62 147 142 38 43 88 90 112 105 31 19 43 33 40 45 -2 10 -1 16 3
15 14 -4 110 76 134 111 26 41 140 154 160 161 30 9 120 75 140 103 12 16 39
40 61 51 64 36 75 43 96 62 21 19 49 37 85 54 11 5 33 23 49 40 17 17 34 31
39 31 6 0 28 15 51 33 73 60 193 133 326 198 71 35 130 69 130 76 0 18 -39 45
-126 87 -44 21 -86 42 -94 47 -30 18 -102 49 -116 49 -8 0 -14 4 -14 8 0 5
-19 15 -42 22 -24 7 -65 23 -93 35 -27 12 -67 28 -87 36 -21 7 -38 19 -38 26
0 15 -39 91 -50 98 -5 3 -11 28 -15 56 -4 31 -20 70 -41 102 -32 50 -40 60
-92 110 -45 44 -60 174 -27 242 19 38 23 40 74 45 61 6 79 24 126 116 15 29
44 76 66 105 39 53 47 77 30 95 -5 5 -11 24 -13 43 -2 19 -8 36 -15 38 -6 2
-30 -14 -51 -35 -29 -29 -43 -37 -51 -29 -8 8 -18 4 -35 -12 l-24 -23 -22 22
c-20 20 -21 24 -7 37 14 14 94 47 144 60 47 11 74 74 77 176 1 36 5 47 17 47
24 0 39 -44 32 -96 -6 -44 -5 -46 18 -42 18 2 32 19 57 67 21 39 30 67 24 73
-10 10 6 79 21 94 10 10 9 104 -1 104 -4 0 -13 -5 -20 -12 -21 -21 -42 9 -40
61 1 25 -2 56 -7 69 -6 19 -4 22 18 22 13 0 30 -7 37 -15 18 -22 30 -18 30 9
0 35 -42 65 -88 62 -20 -2 -56 -3 -78 -4 -32 -2 -49 -9 -72 -33 -28 -29 -31
-30 -40 -12 -14 25 8 76 42 98 27 18 26 38 -1 33 -9 -2 -18 3 -20 10 -6 15 23
16 64 2 19 -7 39 -7 54 -2 14 6 34 6 48 1 30 -12 39 -4 23 21 -7 11 -12 54
-12 100 0 67 3 83 20 100 11 11 24 20 30 20 18 0 21 45 5 95 -13 44 -13 51 0
61 23 17 19 32 -36 126 -33 58 -48 94 -44 107 16 53 -49 267 -126 414 -17 31
-28 57 -24 57 3 0 -5 21 -19 48 -48 92 -125 259 -132 288 -6 27 -27 73 -68
150 -9 18 -36 50 -59 71 -26 24 -60 73 -86 124 -24 46 -47 89 -53 96 -14 18
-88 54 -98 48 -4 -3 -10 -2 -12 2 -3 9 -114 41 -163 48 -16 2 -90 11 -164 20
-73 9 -152 20 -175 26 -85 22 -249 25 -388 7z m405 -38 c66 -11 146 -20 178
-20 115 0 320 -56 383 -104 18 -13 46 -54 65 -92 19 -38 55 -93 82 -121 56
-62 93 -127 144 -255 20 -51 77 -181 125 -288 115 -254 164 -399 156 -461 -6
-40 -1 -55 34 -124 23 -42 39 -83 36 -90 -2 -7 3 -40 11 -74 23 -90 1 -99 -36
-15 -21 47 -48 54 -31 8 13 -34 13 -37 -5 -30 -19 7 -19 5 2 -39 15 -31 15
-37 3 -45 -8 -5 -15 -27 -17 -49 -2 -32 2 -44 17 -53 22 -14 26 -33 9 -44 -17
-10 -139 -14 -139 -4 0 5 5 12 10 15 15 10 12 41 -7 56 -9 8 -22 29 -30 47 -7
17 -18 32 -23 32 -13 0 -13 -13 1 -27 6 -6 8 -16 4 -23 -8 -14 -60 35 -61 59
-3 45 -5 51 -17 51 -8 0 -22 9 -32 20 -10 11 -23 20 -29 20 -12 1 -66 45 -66
55 0 3 12 2 26 -1 19 -5 25 -4 20 5 -4 6 -15 11 -24 11 -18 0 -62 60 -62 83 0
8 -9 22 -20 32 -11 10 -20 22 -20 26 0 5 -11 25 -25 45 -33 49 -32 61 9 62 25
1 43 -6 65 -27 17 -16 31 -34 31 -40 0 -6 5 -11 10 -11 6 0 10 5 10 11 0 19
-20 49 -34 49 -18 0 -70 68 -87 113 -7 22 -22 43 -32 48 -9 6 -15 14 -12 20 4
5 13 5 26 -1 21 -12 26 -1 8 17 -7 7 -9 19 -5 29 6 16 7 16 19 0 10 -13 18
-14 44 -7 25 7 49 5 100 -11 38 -11 78 -22 91 -25 14 -3 38 -28 60 -60 33 -51
58 -61 32 -14 -8 17 -8 21 4 21 13 0 58 -46 83 -86 11 -18 12 -18 12 1 1 34
-93 150 -141 174 -24 12 -50 25 -58 30 -8 5 -28 14 -45 21 -16 7 -38 16 -47
21 -10 5 -25 9 -33 9 -8 0 -23 4 -33 9 -19 10 -248 53 -382 72 -108 15 -351
15 -455 0 -100 -14 -224 -40 -247 -52 -10 -5 -28 -9 -41 -9 -23 0 -113 -23
-152 -39 -11 -5 -60 -21 -110 -36 -116 -35 -227 -75 -239 -86 -31 -28 150 24
304 87 19 8 87 21 150 29 106 13 149 17 355 30 39 2 82 7 96 10 53 10 104 -72
64 -105 -8 -7 -15 -24 -15 -38 0 -14 -10 -46 -21 -70 -17 -34 -19 -46 -9 -52
7 -4 9 -13 5 -19 -5 -9 -10 -9 -20 -1 -10 8 -20 8 -36 -1 -17 -9 -24 -9 -27 0
-8 24 -23 8 -56 -58 -20 -38 -47 -86 -62 -107 -14 -22 -30 -49 -35 -61 -5 -14
-17 -23 -29 -23 -11 0 -20 -3 -19 -7 0 -12 99 -73 117 -73 9 0 26 -10 39 -22
13 -12 43 -32 66 -43 46 -24 72 -69 48 -85 -8 -4 -11 -15 -8 -24 10 -25 -16
-19 -43 9 -13 14 -29 25 -36 25 -7 0 -35 12 -63 26 -53 28 -81 27 -81 -4 0
-23 -58 -52 -105 -52 -18 0 -47 8 -63 17 -28 16 -31 16 -56 0 -16 -11 -35 -15
-50 -11 -16 4 -25 1 -30 -11 -4 -12 -13 -15 -30 -11 -13 3 -45 -1 -71 -9 -33
-9 -54 -11 -66 -4 -10 5 -20 5 -23 0 -3 -5 -20 -11 -38 -14 -59 -9 -104 -32
-137 -69 -17 -20 -42 -38 -54 -40 -15 -2 -23 -11 -25 -28 -5 -34 -30 -60 -59
-60 -13 0 -22 -4 -18 -9 3 -6 1 -34 -4 -63 -5 -29 -16 -91 -24 -138 -15 -83
-20 -104 -37 -145 -4 -11 -16 -68 -25 -127 -16 -98 -16 -113 -2 -195 19 -105
15 -135 -28 -188 -18 -23 -40 -57 -47 -75 -22 -51 -42 -64 -99 -63 -68 2 -59
-13 31 -49 78 -31 117 -54 165 -99 17 -15 48 -35 70 -45 22 -9 56 -28 75 -43
35 -27 171 -89 242 -111 20 -6 42 -18 48 -26 10 -12 8 -14 -13 -14 -15 0 -30
-8 -36 -18 -12 -22 -79 -41 -163 -45 -37 -2 -70 -6 -74 -10 -4 -4 -20 -7 -34
-7 -15 0 -33 -7 -40 -15 -7 -8 -17 -12 -22 -9 -5 3 -29 -4 -53 -17 l-44 -23
-65 32 c-70 35 -97 39 -115 18 -7 -9 -27 -13 -56 -11 -44 3 -45 3 -39 -23 9
-36 11 -37 29 -22 11 9 26 10 58 3 23 -6 58 -11 77 -12 20 0 59 -12 89 -26 29
-14 65 -26 79 -27 35 -2 161 21 181 31 26 15 63 -17 60 -53 -1 -17 2 -39 6
-49 13 -30 -13 -44 -113 -63 -53 -10 -103 -24 -111 -31 -8 -9 -17 -10 -25 -5
-16 13 -96 24 -96 13 0 -5 12 -17 27 -26 l26 -18 -24 -17 c-20 -16 -22 -22
-13 -47 14 -41 46 -51 134 -43 80 7 96 3 149 -35 29 -22 45 -25 111 -25 50 0
88 -5 106 -15 16 -8 48 -15 70 -15 46 0 55 -11 47 -52 -3 -18 -17 -32 -40 -43
-19 -9 -37 -23 -40 -31 -3 -8 -13 -14 -23 -14 -10 0 -38 -24 -64 -54 -34 -40
-55 -55 -81 -60 -19 -4 -35 -12 -35 -18 0 -7 -18 -9 -55 -5 -40 4 -64 1 -87
-11 -37 -18 -143 -24 -173 -9 -48 23 -107 82 -126 125 -12 26 -39 71 -61 101
-52 68 -94 161 -107 237 -6 32 -26 115 -45 184 -18 69 -36 146 -39 171 -4 26
-13 66 -22 90 -8 24 -15 57 -15 72 0 31 -38 150 -69 219 -24 53 -71 195 -71
214 0 19 -41 136 -69 196 -33 72 -45 189 -31 295 6 48 14 118 17 155 5 56 9
67 26 72 12 3 29 -1 38 -10 9 -8 24 -12 33 -8 12 5 28 -4 52 -27 30 -29 37
-32 61 -23 33 11 53 46 53 93 0 32 1 33 33 27 17 -3 44 -15 59 -26 15 -11 33
-20 40 -20 7 0 24 -9 38 -20 79 -62 149 39 105 153 -9 25 -14 54 -11 65 6 17
-2 21 -71 36 -43 10 -98 20 -123 23 -25 3 -48 9 -51 14 -15 25 -133 27 -159 4
-10 -9 -23 -14 -28 -11 -5 3 -15 -1 -22 -10 -8 -9 -25 -14 -44 -12 -28 3 -32
0 -40 -33 -5 -20 -6 -45 -2 -54 6 -16 9 -15 35 9 30 29 51 32 145 22 27 -3 59
-12 70 -19 14 -9 50 -14 101 -14 83 1 135 -18 135 -49 0 -26 -29 -27 -78 -3
-28 13 -65 22 -92 22 -95 -1 -161 -7 -166 -15 -3 -4 -17 -8 -30 -8 -28 0 -84
-49 -84 -74 0 -31 -21 -26 -37 11 -9 21 -22 45 -29 53 -19 25 -53 125 -59 177
-4 32 0 71 13 118 15 58 18 95 14 215 -4 137 -6 146 -28 171 -14 14 -27 41
-30 60 -6 39 31 233 77 399 80 293 115 438 128 535 22 152 56 290 80 318 47
55 268 95 543 97 62 1 183 8 268 15 85 8 227 19 314 25 88 5 161 11 163 13 2
2 54 5 116 6 76 1 150 -5 230 -19z m492 -1060 c3 -5 1 -10 -4 -10 -6 0 -11 5
-11 10 0 6 2 10 4 10 3 0 8 -4 11 -10z m125 -46 c0 -8 -4 -14 -10 -14 -5 0
-10 9 -10 21 0 11 5 17 10 14 6 -3 10 -13 10 -21z m-26 -71 c7 -47 -4 -56 -22
-20 -10 18 -11 13 -6 -28 3 -27 12 -55 20 -61 20 -16 18 -46 -3 -42 -24 4 -66
113 -58 149 4 16 11 26 17 23 6 -4 8 1 3 15 -3 11 -3 26 1 32 11 19 41 -23 48
-68z m-120 21 c7 -19 -2 -37 -15 -29 -12 8 -12 45 0 45 5 0 12 -7 15 -16z
m176 -69 c10 -12 10 -18 0 -30 -19 -23 -40 -18 -40 8 0 38 18 48 40 22z m-550
-265 c0 -5 -2 -10 -4 -10 -3 0 -8 5 -11 10 -3 6 -1 10 4 10 6 0 11 -4 11 -10z
m1095 -250 c-5 -8 -11 -8 -17 -2 -6 6 -7 16 -3 22 5 8 11 8 17 2 6 -6 7 -16 3
-22z m-1523 -281 c9 -5 27 -9 40 -9 25 0 67 -24 58 -33 -3 -3 -43 1 -89 9 -87
16 -178 15 -133 -1 39 -13 24 -25 -33 -25 -36 0 -66 -7 -90 -20 -34 -19 -35
-19 -35 -1 0 10 11 26 25 35 14 9 25 25 25 35 0 11 6 22 13 25 18 7 199 -5
219 -15z m-42 -59 c12 -8 11 -10 -7 -10 -12 0 -25 5 -28 10 -8 13 15 13 35 0z
m-1023 -71 c46 -22 88 -49 93 -59 17 -31 -8 -34 -44 -6 -19 14 -36 22 -40 19
-3 -4 -16 3 -29 15 -13 12 -38 25 -57 28 -46 9 -66 24 -48 35 22 15 39 10 125
-32z m898 20 c0 -7 -8 -15 -17 -17 -18 -3 -25 18 -11 32 10 10 28 1 28 -15z
m-1080 -39 c0 -13 -6 -25 -12 -27 -16 -6 -27 21 -19 43 9 23 31 11 31 -16z
m1255 -29 c7 -15 6 -23 -5 -34 -13 -13 -10 -15 17 -13 23 1 33 -4 36 -16 2
-13 -10 -21 -54 -34 -32 -9 -68 -16 -81 -15 -13 1 -31 1 -40 1 -10 0 -42 0
-72 0 -39 1 -52 -2 -49 -12 5 -13 43 -25 118 -36 36 -6 45 -11 45 -27 0 -12
-9 -21 -25 -25 -25 -6 -25 -6 -3 -12 12 -3 39 -2 60 2 71 15 230 23 237 11 17
-27 -72 -95 -102 -77 -5 3 -31 -2 -58 -10 -27 -8 -58 -13 -69 -12 -12 2 -20
-3 -20 -12 0 -16 4 -16 134 -4 64 6 80 12 110 38 56 49 113 83 150 91 31 7 38
4 58 -21 l23 -29 0 28 c0 17 5 27 15 27 8 0 15 7 15 15 0 8 7 15 16 15 9 0 18
9 21 20 6 21 44 37 63 25 6 -4 18 1 25 11 13 18 15 18 31 2 15 -15 15 -18 -12
-52 -23 -28 -34 -34 -57 -32 -19 2 -30 -2 -35 -13 -10 -27 -45 -59 -59 -54 -9
4 -13 -4 -13 -26 0 -34 -27 -55 -56 -44 -11 4 -15 3 -11 -4 10 -16 -21 -83
-41 -90 -9 -4 -37 -26 -62 -50 -25 -24 -51 -43 -57 -43 -12 0 -30 -14 -80 -63
-13 -12 -26 -36 -29 -54 -3 -18 -12 -37 -20 -44 -8 -7 -11 -21 -8 -35 4 -13 2
-30 -4 -37 -11 -13 -10 -82 1 -93 14 -14 7 -55 -14 -83 -12 -16 -19 -33 -16
-38 9 -14 -20 -88 -32 -86 -6 2 -11 -6 -11 -17 0 -11 -2 -20 -5 -20 -11 0 -95
88 -95 98 0 6 -22 40 -50 76 -27 36 -50 69 -50 73 0 4 -17 31 -38 58 -86 115
-100 157 -106 325 -2 36 -6 81 -10 101 -5 24 -4 39 4 44 14 8 4 63 -16 85 -7
9 -16 34 -20 58 -6 38 -4 44 25 71 17 16 31 34 31 40 0 7 9 9 23 6 25 -7 54
16 43 34 -4 5 -1 13 4 16 6 4 27 -9 46 -29 29 -30 42 -36 76 -36 36 0 46 6 77
40 40 44 65 50 81 21z m820 -21 c0 -5 -2 -10 -4 -10 -3 0 -8 5 -11 10 -3 6 -1
10 4 10 6 0 11 -4 11 -10z m623 -32 c26 -31 22 -82 -8 -98 -14 -7 -25 -22 -25
-32 0 -10 -4 -18 -9 -18 -15 0 -20 27 -8 39 9 9 8 11 -4 6 -31 -12 -67 103
-42 129 13 13 77 -4 96 -26z m-183 -162 c0 -3 -4 -8 -10 -11 -5 -3 -10 -1 -10
4 0 6 5 11 10 11 6 0 10 -2 10 -4z m78 -74 c12 -40 6 -77 -23 -138 -17 -36
-60 -68 -81 -60 -22 9 -16 44 10 61 23 15 24 22 23 96 l-2 79 31 0 c27 0 32
-5 42 -38z m-1823 -392 c3 -5 1 -10 -4 -10 -6 0 -11 5 -11 10 0 6 2 10 4 10 3
0 8 -4 11 -10z m875 -460 c0 -5 -4 -10 -10 -10 -5 0 -10 5 -10 10 0 6 5 10 10
10 6 0 10 -4 10 -10z m-90 -50 c0 -5 -4 -10 -10 -10 -5 0 -10 5 -10 10 0 6 5
10 10 10 6 0 10 -4 10 -10z m-250 -270 c0 -5 -4 -10 -10 -10 -5 0 -10 5 -10
10 0 6 5 10 10 10 6 0 10 -4 10 -10z m50 -104 c0 -3 -4 -8 -10 -11 -5 -3 -10
-1 -10 4 0 6 5 11 10 11 6 0 10 -2 10 -4z m770 -46 c0 -5 -5 -10 -11 -10 -5 0
-7 5 -4 10 3 6 8 10 11 10 2 0 4 -4 4 -10z m-290 -310 c0 -5 -2 -10 -4 -10 -3
0 -8 5 -11 10 -3 6 -1 10 4 10 6 0 11 -4 11 -10z m-955 -260 c3 -5 1 -10 -4
-10 -6 0 -11 5 -11 10 0 6 2 10 4 10 3 0 8 -4 11 -10z m340 -40 c3 -5 1 -10
-4 -10 -6 0 -11 5 -11 10 0 6 2 10 4 10 3 0 8 -4 11 -10z m-400 -40 c3 -5 1
-10 -4 -10 -6 0 -11 5 -11 10 0 6 2 10 4 10 3 0 8 -4 11 -10z m-79 -87 c-7 -7
-46 16 -46 28 0 5 11 2 25 -7 14 -9 24 -19 21 -21z m414 -193 c0 -5 -5 -10
-11 -10 -5 0 -7 5 -4 10 3 6 8 10 11 10 2 0 4 -4 4 -10z m-200 -200 c0 -5 -5
-10 -11 -10 -5 0 -7 5 -4 10 3 6 8 10 11 10 2 0 4 -4 4 -10z m925 -70 c3 -5 1
-10 -4 -10 -6 0 -11 5 -11 10 0 6 2 10 4 10 3 0 8 -4 11 -10z m-1015 -20 c0
-5 -5 -10 -11 -10 -5 0 -7 5 -4 10 3 6 8 10 11 10 2 0 4 -4 4 -10z m-105 -30
c3 -5 1 -10 -4 -10 -6 0 -11 5 -11 10 0 6 2 10 4 10 3 0 8 -4 11 -10z m845
-90 c0 -5 -5 -10 -11 -10 -5 0 -7 5 -4 10 3 6 8 10 11 10 2 0 4 -4 4 -10z"/>
<path d="M6839 7526 c-2 -2 -26 -7 -54 -9 -27 -3 -52 -6 -54 -6 -2 -1 1 -7 7
-13 5 -7 13 -67 16 -133 7 -154 34 -285 57 -285 14 0 11 28 -10 103 -13 43
-21 104 -22 168 -1 94 0 101 23 127 14 15 34 32 44 39 10 6 14 12 8 12 -6 1
-13 -1 -15 -3z"/>
<path d="M7170 6458 c-202 -52 -266 -71 -275 -79 -14 -14 84 -2 125 15 19 8
80 25 134 38 55 13 101 29 104 36 4 14 7 15 -88 -10z"/>
<path d="M8950 6440 c6 -11 15 -20 20 -20 6 0 5 9 -2 20 -7 11 -16 20 -21 20
-4 0 -3 -9 3 -20z"/>
<path d="M9060 6436 c0 -21 44 -70 59 -65 8 3 5 15 -11 38 -26 38 -48 51 -48
27z"/>
<path d="M8940 6390 c0 -5 5 -10 11 -10 5 0 7 5 4 10 -3 6 -8 10 -11 10 -2 0
-4 -4 -4 -10z"/>
<path d="M6805 6373 c-56 -7 -78 -14 -69 -23 10 -9 113 8 129 21 9 9 -2 9 -60
2z"/>
<path d="M6683 6353 c-32 -6 -29 -19 4 -18 14 0 28 6 31 13 2 6 0 11 -5 11 -4
-1 -18 -4 -30 -6z"/>
<path d="M6565 6330 c28 -12 37 -12 30 0 -3 6 -16 10 -28 9 -21 0 -21 -1 -2
-9z"/>
<path d="M8950 6226 c0 -8 5 -18 10 -21 6 -3 10 1 10 9 0 8 -4 18 -10 21 -5 3
-10 -1 -10 -9z"/>
<path d="M8956 6175 c-17 -13 -17 -14 4 -35 12 -12 29 -20 38 -18 26 5 26 33
0 50 -20 13 -27 14 -42 3z"/>
<path d="M9230 6051 c0 -16 5 -33 10 -36 6 -4 10 6 10 24 0 16 -4 33 -10 36
-6 4 -10 -6 -10 -24z"/>
<path d="M6760 5323 c-30 -8 -61 -14 -67 -13 -35 2 -52 1 -93 -8 -28 -6 -49
-7 -56 -1 -7 6 -16 4 -24 -6 -10 -12 -10 -18 1 -32 42 -49 134 -47 216 5 27
18 57 32 65 32 9 0 19 7 22 16 11 29 15 28 -64 7z"/>
<path d="M6860 5290 c-35 -44 -23 -55 15 -14 22 23 33 54 21 54 -2 0 -19 -18
-36 -40z"/>
<path d="M6810 5179 c0 -5 5 -7 10 -4 6 3 10 8 10 11 0 2 -4 4 -10 4 -5 0 -10
-5 -10 -11z"/>
<path d="M6770 5150 c0 -5 4 -10 9 -10 6 0 13 5 16 10 3 6 -1 10 -9 10 -9 0
-16 -4 -16 -10z"/>
<path d="M6720 5110 c0 -5 5 -10 10 -10 6 0 10 5 10 10 0 6 -4 10 -10 10 -5 0
-10 -4 -10 -10z"/>
<path d="M6695 5100 c-3 -5 -1 -10 4 -10 6 0 11 5 11 10 0 6 -2 10 -4 10 -3 0
-8 -4 -11 -10z"/>
<path d="M6735 4620 c-4 -17 -4 -34 -1 -37 3 -3 11 6 17 21 9 19 9 30 2 37 -8
8 -13 2 -18 -21z"/>
<path d="M7260 3930 c-13 -8 -13 -10 2 -10 9 0 20 5 23 10 8 13 -5 13 -25 0z"/>
<path d="M12355 7598 c-13 -29 -75 -161 -139 -293 l-115 -240 32 -17 c18 -9
35 -17 39 -18 4 0 34 56 67 125 33 69 63 125 68 125 4 0 30 -13 57 -28 88 -48
105 -92 106 -268 l0 -100 35 -17 c20 -9 38 -17 40 -17 12 0 3 267 -9 303 l-14
37 42 0 c91 1 164 65 181 161 9 49 -21 118 -66 152 -33 25 -275 147 -292 147
-4 0 -19 -24 -32 -52z m279 -168 c30 -36 31 -48 12 -93 -20 -49 -52 -72 -97
-71 -42 2 -209 76 -209 94 0 6 20 51 45 100 l45 90 89 -44 c48 -25 100 -59
115 -76z"/>
<path d="M2398 7389 c-24 -12 -38 -27 -38 -39 0 -11 16 -165 35 -342 19 -178
35 -326 35 -331 0 -4 18 2 41 14 38 19 41 23 35 52 -3 18 -8 66 -12 107 l-6
75 121 60 120 59 35 -29 c19 -17 55 -48 81 -69 l45 -39 40 18 c22 10 40 21 39
24 0 6 -486 426 -517 448 -14 9 -25 8 -54 -8z m220 -242 c28 -26 52 -50 52
-52 0 -6 -177 -95 -188 -95 -4 0 -16 62 -25 138 -9 75 -20 148 -23 162 -6 20
6 13 62 -40 38 -36 93 -87 122 -113z"/>
<path d="M13054 7168 c-180 -284 -194 -312 -194 -391 0 -55 21 -96 74 -145 86
-79 194 -111 273 -81 52 19 114 93 229 275 63 99 114 185 114 190 0 15 -61 47
-70 38 -4 -5 -58 -88 -119 -186 -141 -223 -180 -260 -265 -244 -40 8 -108 55
-132 91 -22 33 -21 102 2 146 9 19 66 112 126 207 60 96 108 175 106 176 -2 1
-17 12 -35 24 l-31 22 -78 -122z"/>
<path d="M1833 7059 c-39 -25 -49 -3 103 -235 134 -203 158 -252 145 -286 -13
-34 -44 -58 -84 -65 -30 -4 -40 0 -76 33 l-42 37 -27 -26 -26 -27 20 -27 c56
-75 160 -91 237 -37 77 55 102 120 75 198 -12 36 -277 455 -288 455 -3 1 -20
-9 -37 -20z"/>
<path d="M3806 2367 c-48 -27 -76 -78 -76 -138 0 -66 28 -101 144 -181 142
-97 168 -148 107 -209 -25 -24 -37 -29 -81 -29 -117 0 -200 72 -200 175 l0 45
-40 0 -40 0 0 -52 c0 -139 131 -245 291 -236 80 4 130 33 159 94 50 101 11
178 -135 269 -91 57 -125 93 -125 132 0 52 37 83 97 83 59 0 126 -29 148 -64
10 -15 20 -46 22 -70 4 -34 10 -46 27 -50 49 -13 56 -9 56 40 0 59 -23 106
-70 147 -79 67 -209 87 -284 44z"/>
<path d="M11517 2312 l-218 -77 6 -29 c3 -16 8 -32 10 -35 3 -3 48 9 100 26
l94 31 39 -112 c22 -61 63 -179 92 -263 l53 -152 36 15 c19 8 36 16 38 17 1 2
-38 117 -87 257 -50 140 -90 257 -90 261 0 3 41 21 90 38 58 21 90 38 90 47 0
19 -18 54 -28 53 -4 0 -105 -35 -225 -77z"/>
<path d="M4480 2196 c0 -5 -147 -560 -155 -587 -4 -12 5 -19 35 -27 45 -11 35
-28 80 141 13 48 28 87 34 87 6 0 43 -9 81 -20 177 -51 283 -6 314 131 19 84
-15 152 -97 193 -26 13 -100 38 -164 55 -123 33 -128 34 -128 27z m145 -107
c72 -17 134 -48 152 -76 31 -47 -1 -143 -55 -164 -47 -18 -232 21 -232 48 0 8
12 59 27 114 21 79 30 98 42 95 9 -3 39 -10 66 -17z"/>
<path d="M10869 2127 c-63 -18 -107 -45 -143 -90 -26 -33 -31 -47 -31 -90 1
-68 27 -111 84 -139 37 -18 63 -21 175 -22 147 -2 173 -10 196 -65 40 -97
-125 -197 -245 -147 -19 8 -45 32 -60 55 l-27 40 -32 -16 c-17 -8 -32 -17 -34
-18 -8 -7 30 -65 62 -92 47 -42 96 -57 173 -50 80 6 166 48 208 100 27 35 30
46 30 106 0 58 -4 72 -28 104 -39 51 -98 67 -254 67 -118 0 -125 1 -148 25
-58 57 -7 142 98 165 65 15 115 -2 143 -49 21 -36 24 -36 64 -16 35 18 36 19
10 59 -40 66 -148 99 -241 73z"/>
<path d="M10335 1991 c-36 -8 -37 4 11 -236 44 -219 43 -274 -4 -316 -53 -48
-137 -62 -198 -33 -52 25 -76 90 -120 317 l-39 198 -35 -6 c-19 -4 -37 -9 -40
-11 -5 -6 65 -363 86 -433 16 -56 61 -114 105 -137 36 -18 142 -18 203 0 108
33 156 95 156 205 0 34 -16 144 -36 244 -39 204 -43 217 -52 216 -4 -1 -20 -4
-37 -8z"/>
<path d="M5305 1981 c-143 -37 -235 -170 -235 -337 0 -124 50 -213 151 -269
49 -27 62 -30 149 -30 85 0 100 3 141 27 98 58 151 155 157 291 5 98 -8 146
-58 215 -55 76 -210 128 -305 103z m133 -73 c31 -8 59 -25 87 -52 66 -67 82
-160 46 -274 -24 -77 -51 -116 -107 -148 -39 -23 -53 -26 -113 -22 -82 4 -134
35 -172 101 -33 59 -34 188 0 263 27 62 75 111 127 129 49 18 73 18 132 3z"/>
<path d="M5985 1858 c-9 -29 -74 -601 -69 -609 6 -11 74 -12 75 -1 0 4 8 63
17 132 l17 125 45 -3 c60 -5 110 -30 137 -70 12 -18 36 -76 53 -128 34 -100
49 -118 99 -112 l28 3 -47 128 c-27 71 -55 136 -64 146 -22 24 -20 28 13 34
15 3 43 18 61 34 87 73 79 214 -14 267 -50 29 -67 33 -214 51 -142 18 -132 18
-137 3z m190 -84 c33 -3 74 -12 92 -19 88 -36 71 -173 -23 -191 -26 -5 -204
11 -210 19 -1 1 5 47 12 102 7 55 13 101 14 103 0 2 12 1 28 -2 15 -3 54 -8
87 -12z"/>
<path d="M9301 1824 c-52 -8 -96 -16 -99 -18 -3 -4 60 -510 74 -591 5 -29 8
-30 45 -27 21 2 39 7 39 11 0 3 -7 53 -15 111 -23 166 -25 157 45 165 90 10
119 -9 205 -133 67 -99 70 -102 106 -102 21 0 40 4 44 10 8 13 -144 229 -173
244 l-24 12 41 27 c57 38 74 76 69 153 -9 144 -93 176 -357 138z m228 -68 c56
-30 68 -110 23 -156 -28 -28 -72 -41 -188 -55 l-51 -6 -12 101 c-7 56 -11 104
-9 106 5 5 127 21 171 23 21 0 50 -5 66 -13z"/>
<path d="M6658 1756 c-3 -31 -1 -35 25 -40 16 -3 58 -6 94 -6 50 0 65 -4 70
-16 3 -9 -2 -134 -11 -276 -9 -143 -16 -261 -14 -263 2 -2 19 -6 39 -10 l36
-7 6 69 c4 37 11 149 17 248 6 99 13 194 16 212 l5 31 99 -5 100 -6 0 37 c0
31 -3 36 -22 36 -13 0 -115 7 -228 15 -113 8 -210 15 -216 15 -7 0 -14 -15
-16 -34z"/>
<path d="M8700 1769 c-118 -9 -218 -18 -222 -18 -5 -1 -8 -17 -8 -37 l0 -36
99 7 c91 7 99 6 104 -11 3 -11 13 -135 23 -277 l18 -258 41 3 c28 2 40 7 39
18 0 8 -9 131 -19 272 -10 142 -16 260 -13 263 3 4 47 9 97 12 l91 6 0 38 c0
31 -4 39 -17 38 -10 -1 -115 -10 -233 -20z"/>
<path d="M7470 1734 c-113 -49 -145 -179 -64 -259 34 -34 54 -42 226 -90 80
-22 113 -52 113 -103 0 -49 -22 -75 -81 -98 -52 -20 -128 -14 -173 12 -33 19
-71 81 -71 114 0 17 -4 20 -20 16 -11 -3 -30 -9 -41 -12 -18 -5 -20 -11 -16
-41 10 -59 50 -108 114 -140 49 -24 70 -28 138 -28 58 0 89 5 115 19 78 41
112 93 112 167 0 99 -46 137 -227 189 -124 36 -155 57 -155 107 0 59 53 93
143 93 70 0 110 -25 132 -83 l17 -44 39 10 c44 11 46 16 20 73 -21 45 -67 85
-120 103 -48 16 -159 13 -201 -5z"/>
</g>
</svg>
